<svg height="512" viewBox="0 0 60 60" width="512" xmlns="http://www.w3.org/2000/svg">  <defs>
    <linearGradient id="grad1" x1="0%" y1="0%" x2="100%" y2="0%">
      <stop offset="0%" style="stop-color: #2F80ED;stop-opacity:1" />
      <stop offset="100%" style="stop-color:#56CCF2;stop-opacity:1" />
    </linearGradient>
  </defs><g id="Page-1" fill="none" fill-rule="evenodd"><g fill="url(#grad1)" id="059---Mobile-Parking-Ticket" ><path id="Shape" d="m56 12h-8v-8c0-2.209139-1.790861-4-4-4h-28c-2.209139 0-4 1.790861-4 4v8h-8c-2.209139 0-4 1.790861-4 4v26c0 2.209139 1.790861 4 4 4h8v10c0 2.209139 1.790861 4 4 4h28c2.209139 0 4-1.790861 4-4v-10h8c2.209139 0 4-1.790861 4-4v-6.308c-.019142-1.3343916-.9074183-2.4998231-2.189-2.872-1.6732767-.5196896-2.8135768-2.0678778-2.8135768-3.82s1.1403001-3.3003104 2.8135768-3.82c1.2815817-.3721769 2.169858-1.5376084 2.189-2.872v-6.308c0-2.209139-1.790861-4-4-4zm-18.309-10-1.283 1.368c-.3778598.40298537-.9055734.63173367-1.458.632h-9.9c-.5526257-.00070589-1.0804819-.22935917-1.459-.632l-1.282-1.368zm-23.691 2c0-1.1045695.8954305-2 2-2h3.567l2.565 2.735c.7567936.80574999 1.8125738 1.2634477 2.918 1.265h9.9c1.1055502-.00095651 2.1615565-.45875227 2.918-1.265l2.565-2.735h3.567c1.1045695 0 2 .8954305 2 2v8h-32zm30 54h-28c-1.1045695 0-2-.8954305-2-2v-1.556c.6053465.3599241 1.2957468.5518554 2 .556h28c.7042532-.0041446 1.3946535-.1960759 2-.556v1.556c0 1.1045695-.8954305 2-2 2zm2-7c0 1.1045695-.8954305 2-2 2h-28c-1.1045695 0-2-.8954305-2-2v-5h32zm12-28.692c-.0186661.4588691-.3374768.8505624-.783.962-2.509915.7795344-4.2203652 3.1018167-4.2203652 5.73s1.7104502 4.9504656 4.2203652 5.73c.4455232.1114376.7643339.5031309.783.962v6.308c0 1.1045695-.8954305 2-2 2h-6v-3c0-.5522847-.4477153-1-1-1s-1 .4477153-1 1v3h-44c-1.1045695 0-2-.8954305-2-2v-26c0-1.1045695.8954305-2 2-2h44v3c0 .5522847.4477153 1 1 1s1-.4477153 1-1v-3h6c1.1045695 0 2 .8954305 2 2z"/><path id="Shape" d="m49 35c-.5522847 0-1 .4477153-1 1v1c0 .5522847.4477153 1 1 1s1-.4477153 1-1v-1c0-.5522847-.4477153-1-1-1z"/><path id="Shape" d="m49 30c-.5522847 0-1 .4477153-1 1v1c0 .5522847.4477153 1 1 1s1-.4477153 1-1v-1c0-.5522847-.4477153-1-1-1z"/><path id="Shape" d="m49 25c-.5522847 0-1 .4477153-1 1v1c0 .5522847.4477153 1 1 1s1-.4477153 1-1v-1c0-.5522847-.4477153-1-1-1z"/><path id="Shape" d="m49 20c-.5522847 0-1 .4477153-1 1v1c0 .5522847.4477153 1 1 1s1-.4477153 1-1v-1c0-.5522847-.4477153-1-1-1z"/><path id="Shape" d="m41 24h-5.419l-3.133-5.486c-.5357698-.9350021-1.530375-1.5123918-2.608-1.514h-14.52c-1.1987301.0027961-2.2817723.7159233-2.758 1.816l-2.221 5.184h-2.341c-1.65685425 0-3 1.3431458-3 3v7c0 1.1045695.8954305 2 2 2h1c.00367682 1.0854693.36419333 2.1396111 1.026 3h-2.026c-.55228475 0-1 .4477153-1 1s.44771525 1 1 1h36c.5522847 0 1-.4477153 1-1s-.4477153-1-1-1h-2.026c.6618067-.8603889 1.0223232-1.9145307 1.026-3h1c1.1045695 0 2-.8954305 2-2v-6c0-2.209139-1.790861-4-4-4zm2 4h-2c-.5522847 0-1-.4477153-1-1v-1h1c1.1045695 0 2 .8954305 2 2zm-12.288-8.494 2.566 4.494h-3.743l-1.7-2.555c-.306518-.4595009-.9274991-.583518-1.387-.277-.4595009.3065181-.583518.9274991-.277 1.387l.961 1.445h-3.132v-5.0000184l5.84.0000184c.3609842-.0021887.6947797.1915045.872.506zm-16.312.105c.1591236-.3674555.5195919-.6068534.92-.611h6.68v5h-2.465l-1.7-2.555c-.1982824-.297245-.5400812-.4661282-.8966441-.4430331s-.6737195.2346599-.832.555c-.1582805.32034-.1336383.7007881.0646441.9980331l.961 1.445h-4.616zm-7.4 14.389v-7c0-.5522847.44771525-1 1-1h14v8h-4.424c-.7922291-1.8216773-2.5895119-2.9999437-4.576-2.9999437s-3.7837709 1.1782664-4.576 2.9999437zm26.026 5h-16.052c.6618067-.8603889 1.0223232-1.9145307 1.026-3h14c.0036768 1.0854693.3641933 2.1396111 1.026 3zm-23.026-3c0-1.6568542 1.3431458-3 3-3s3 1.3431458 3 3-1.3431458 3-3 3-3-1.3431458-3-3zm24 0c0-1.6568542 1.3431458-3 3-3s3 1.3431458 3 3-1.3431458 3-3 3-3-1.3431458-3-3zm7.576-2c-.7922291-1.8216773-2.5895119-2.9999437-4.576-2.9999437s-3.7837709 1.1782664-4.576 2.9999437h-8.424v-8h14v1c0 1.6568542 1.3431458 3 3 3h2v4z"/><path id="Shape" d="m30 28h-2c-.5522847 0-1 .4477153-1 1s.4477153 1 1 1h2c.5522847 0 1-.4477153 1-1s-.4477153-1-1-1z"/><path id="Shape" d="m17 30h2c.5522847 0 1-.4477153 1-1s-.4477153-1-1-1h-2c-.5522847 0-1 .4477153-1 1s.4477153 1 1 1z"/><circle id="Oval" cx="13" cy="36" r="1"/><circle id="Oval" cx="37" cy="36" r="1"/></g></g></svg>